# xmcd
#
# Track frame offsets:
#	150
#	5765
#	15297
#	26653
#	33218
#	43715
#	56805
#	62500
#	74937
#	97860
#	110885
#	117758
#	126860
#	137303
#	142240
#	153470
#	161258
#	170985
#	180835
#	190497
#	207273
#
# Disc length: 2987 seconds
#
# Revision: 1
# Processed by: cddbd v1.5.2PL0 Copyright (c) Steve Scherf et al.
# Submitted via: audiograbber 1.83.01
#
DISCID=2a0ba915
DTITLE=ARS Musica Althofen - Stille Nacht, heilige Nacht
DYEAR=1900
DGENRE=Folk
TTITLE0=Turmsonate
TTITLE1=Ich brach drei dürre Reiselein
TTITLE2=Der Engel begrüßte
TTITLE3=Ricercare über Ave Maria clare
TTITLE4=Maria durch ein Dornwald ging
TTITLE5=Grad dort
TTITLE6=Allemande
TTITLE7=Es ist ein Ross entsprungen
TTITLE8=Kindelwiegen
TTITLE9=Lasst uns das Kindlein wiegen
TTITLE10=Auf, auf ihr Hirten
TTITLE11=Es wintert schon eina
TTITLE12=Schauggs lei an wias in Schnee
TTITLE13=Ihr Hirten kommet auf die Weid
TTITLE14=Wearst mei Liacht ume sein
TTITLE15=Schean still fallt da Schnee
TTITLE16=Langenwanger Jodler
TTITLE17=A Stern bei da Nocht
TTITLE18=Blüaht wieda die Wihnacht
TTITLE19=Pastorale
TTITLE20=Stille Nacht
EXTD=
EXTT0=
EXTT1=
EXTT2=
EXTT3=
EXTT4=
EXTT5=
EXTT6=
EXTT7=
EXTT8=
EXTT9=
EXTT10=
EXTT11=
EXTT12=
EXTT13=
EXTT14=
EXTT15=
EXTT16=
EXTT17=
EXTT18=
EXTT19=
EXTT20=
PLAYORDER=
